<?xml version="1.0" encoding="UTF-8"?>
<svg width="22px" height="22px" viewBox="0 0 22 22" version="1.1" xmlns="http://www.w3.org/2000/svg" xmlns:xlink="http://www.w3.org/1999/xlink">
    <!-- Generator: Sketch 42 (36781) - http://www.bohemiancoding.com/sketch -->
    <title>pricing-page-icons/ic-attention</title>
    <desc>Created with Sketch.</desc>
    <defs></defs>
    <g stroke="none" stroke-width="1" fill="none" fill-rule="evenodd">
        <g fill="#05149B">
            <path d="M11,21 C16.5228169,21 21,16.5228169 21,11 C21,5.4771831 16.5228169,1 11,1 C5.4771831,1 1,5.4771831 1,11 C1,16.5228169 5.4771831,21 11,21 Z M11,19.7793427 C6.15126761,19.7793427 2.22065728,15.8487324 2.22065728,11 C2.22065728,6.15126761 6.15126761,2.22065728 11,2.22065728 C15.8487324,2.22065728 19.7793427,6.15126761 19.7793427,11 C19.7793427,15.8487324 15.8487324,19.7793427 11,19.7793427 Z M12.0784977,14.0074178 C12.3377465,14.0074178 12.5479812,14.2175587 12.5479812,14.4769014 L12.5479812,16.6338028 C12.5479812,16.8930516 12.3377465,17.1032864 12.0784977,17.1032864 L9.92150235,17.1032864 C9.66225352,17.1032864 9.45201878,16.8930516 9.45201878,16.6338028 L9.45201878,14.4769014 C9.45201878,14.2175587 9.66225352,14.0074178 9.92150235,14.0074178 L12.0784977,14.0074178 Z M11.8369953,4.89671362 C12.096338,4.89671362 12.3064789,5.10694836 12.3064789,5.36619718 L12.3064789,12.6096714 C12.3064789,12.8689202 12.096338,13.0791549 11.8369953,13.0791549 L10.1468545,13.0791549 C9.88760563,13.0791549 9.67737089,12.8689202 9.67737089,12.6096714 L9.67737089,5.36619718 C9.67737089,5.10694836 9.88760563,4.89671362 10.1468545,4.89671362 L11.8369953,4.89671362 Z"></path>
        </g>
    </g>
</svg>