<?xml version="1.0" encoding="UTF-8"?>
<svg width="22px" height="22px" viewBox="0 0 22 22" version="1.1" xmlns="http://www.w3.org/2000/svg" xmlns:xlink="http://www.w3.org/1999/xlink">
    <!-- Generator: Sketch 41.2 (35397) - http://www.bohemiancoding.com/sketch -->
    <title>pricing-page-icons/ic-close</title>
    <desc>Created with Sketch.</desc>
    <defs></defs>
    <g stroke="none" stroke-width="1" fill="none" fill-rule="evenodd">
        <g fill="#FFFFFF">
            <path d="M11,21 C16.5228169,21 21,16.5228169 21,11 C21,5.4771831 16.5228169,1 11,1 C5.4771831,1 1,5.4771831 1,11 C1,16.5228169 5.4771831,21 11,21 Z M11,19.7793427 C6.15126761,19.7793427 2.22065728,15.8487324 2.22065728,11 C2.22065728,6.15126761 6.15126761,2.22065728 11,2.22065728 C15.8487324,2.22065728 19.7793427,6.15126761 19.7793427,11 C19.7793427,15.8487324 15.8487324,19.7793427 11,19.7793427 Z M11.170892,9.48075117 L14.4303286,6.22131455 C14.6137089,6.03793427 14.9109859,6.03793427 15.0942723,6.22131455 L16.1204695,7.24741784 C16.3037559,7.43079812 16.3037559,7.72807512 16.1204695,7.9113615 L12.860939,11.170892 L16.1204695,14.4303286 C16.3037559,14.6137089 16.3037559,14.9109859 16.1204695,15.0942723 L15.0942723,16.1204695 C14.9109859,16.3037559 14.6137089,16.3037559 14.4303286,16.1204695 L11.170892,12.860939 L7.9113615,16.1204695 C7.72807512,16.3037559 7.43079812,16.3037559 7.24741784,16.1204695 L6.22131455,15.0942723 C6.03793427,14.9109859 6.03793427,14.6137089 6.22131455,14.4303286 L9.48075117,11.170892 L6.22131455,7.9113615 C6.03793427,7.72807512 6.03793427,7.43079812 6.22131455,7.24741784 L7.24741784,6.22131455 C7.43079812,6.03793427 7.72807512,6.03793427 7.9113615,6.22131455 L11.170892,9.48075117 Z"></path>
        </g>
    </g>
</svg>