<?xml version="1.0" encoding="UTF-8"?>
<svg width="30px" height="30px" viewBox="0 0 30 30" version="1.1" xmlns="http://www.w3.org/2000/svg" xmlns:xlink="http://www.w3.org/1999/xlink">
    <!-- Generator: Sketch 41.2 (35397) - http://www.bohemiancoding.com/sketch -->
    <title>pricing-page-icons/ic-done</title>
    <desc>Created with Sketch.</desc>
    <defs></defs>
    <g stroke="none" stroke-width="1" fill="none" fill-rule="evenodd">
        <g fill="#000000">
            <path d="M27.1827879,2.43894941 L11.8606083,25.2201277 C11.4291671,25.86313 10.950956,25.86313 10.5201263,25.221038 L7.22296502,19.1872393 C6.02498529,17.3962867 3.92876971,17.3962867 2.77757603,19.1102527 L1.16899953,21.5032583 C0.863026843,21.9584399 0.983984558,22.5754774 1.43916615,22.8814501 C1.89434774,23.1874228 2.5113852,23.0664651 2.81735788,22.6112835 L4.42614206,20.2179687 C4.79059101,19.6753555 5.16316399,19.6753555 5.52740527,20.2176597 L8.8243083,26.2510737 C10.0885136,28.1424552 12.2916095,28.1424552 13.509287,26.3276756 L28.8308551,3.54740752 C29.1369474,3.09230633 29.0161518,2.47523712 28.5610506,2.16914486 C28.1059494,1.86305261 27.4888802,1.98384822 27.1827879,2.43894941 Z"></path>
        </g>
    </g>
</svg>