<?xml version="1.0" encoding="UTF-8"?>
<svg width="200px" height="200px" viewBox="0 0 200 200" version="1.1" xmlns="http://www.w3.org/2000/svg" xmlns:xlink="http://www.w3.org/1999/xlink">
    <!-- Generator: Sketch 41.2 (35397) - http://www.bohemiancoding.com/sketch -->
    <title>pricing-page-icons/ic-price-lv-four</title>
    <desc>Created with Sketch.</desc>
    <defs></defs>
    <g stroke="none" stroke-width="1" fill="none" fill-rule="evenodd">
        <g fill="#FF553E">
            <path d="M100,5 C47.5740741,5 5,47.5740741 5,100 C5,152.425926 47.5740741,195 100,195 C152.425926,195 195,152.425926 195,100 C195,47.5740741 152.308642,5 100,5 Z M12.154321,103.987654 L44.6419753,103.987654 C45.1111111,116.537037 47.808642,128.617284 52.2654321,139.993827 L21.7716049,139.993827 C16.1419753,129.08642 12.7407407,116.888889 12.154321,103.987654 Z M104.104938,56.9567901 L104.104938,16.1419753 C119.820988,26.6975309 131.901235,40.7716049 139.641975,56.9567901 L104.104938,56.9567901 Z M142.691358,63.9938272 C146.679012,74.3148148 148.907407,85.4567901 149.141975,96.9506173 L104.104938,96.9506173 L104.104938,63.9938272 L142.691358,63.9938272 Z M100.351852,13.6790123 C100.469136,13.7962963 100.58642,13.7962963 100.703704,13.9135802 L100,13.9135802 C100.117284,13.7962963 100.234568,13.7962963 100.351852,13.6790123 Z M97.0679012,56.9567901 L61.0617284,56.9567901 C68.8024691,40.537037 81.117284,26.345679 97.0679012,15.7901235 L97.0679012,56.9567901 Z M97.0679012,63.9938272 L97.0679012,96.9506173 L51.5617284,96.9506173 C51.7962963,85.4567901 54.0246914,74.4320988 58.0123457,63.9938272 L97.0679012,63.9938272 Z M44.5246914,96.9506173 L12.154321,96.9506173 C12.5061728,85.2222222 15.2037037,74.1975309 19.7777778,63.9938272 L50.6234568,63.9938272 C46.8703704,74.4320988 44.7592593,85.4567901 44.5246914,96.9506173 Z M51.6790123,103.987654 L97.1851852,103.987654 L97.1851852,139.993827 L59.8888889,139.993827 C55.0802469,128.734568 52.1481481,116.537037 51.6790123,103.987654 Z M97.0679012,147.030864 L97.0679012,185.030864 C82.6419753,175.296296 71.0308642,162.160494 63.1728395,147.030864 L97.0679012,147.030864 Z M104.104938,147.030864 L137.530864,147.030864 C129.790123,162.04321 118.296296,175.061728 104.104938,184.679012 L104.104938,147.030864 Z M104.104938,139.993827 L104.104938,103.987654 L149.024691,103.987654 C148.438272,116.537037 145.623457,128.734568 140.814815,139.993827 L104.104938,139.993827 Z M156.179012,103.987654 L187.845679,103.987654 C187.259259,116.888889 183.858025,129.08642 178.228395,139.993827 L148.438272,139.993827 C153.012346,128.617284 155.592593,116.419753 156.179012,103.987654 Z M156.179012,96.9506173 C155.944444,85.5740741 153.833333,74.4320988 150.197531,63.9938272 L180.222222,63.9938272 C184.796296,74.0802469 187.493827,85.2222222 187.845679,96.9506173 L156.179012,96.9506173 Z M176.58642,56.9567901 L147.382716,56.9567901 C139.876543,39.7160494 127.679012,24.4691358 111.728395,12.8580247 C139.641975,16.6111111 163.333333,33.382716 176.58642,56.9567901 Z M89.0925926,12.7407407 C73.1419753,24.3518519 60.9444444,39.5987654 53.3209877,56.9567901 L23.2962963,56.9567901 C36.6666667,33.1481481 60.8271605,16.2592593 89.0925926,12.7407407 Z M25.7592593,147.030864 L55.3148148,147.030864 C62.8209877,162.62963 73.845679,176.469136 87.8024691,187.024691 C61.7654321,183.388889 39.2469136,168.376543 25.7592593,147.030864 Z M113.135802,186.907407 C126.975309,176.351852 138,162.512346 145.506173,147.030864 L174.358025,147.030864 C160.87037,168.024691 138.820988,183.037037 113.135802,186.907407 Z"></path>
        </g>
    </g>
</svg>