<?xml version="1.0" encoding="UTF-8"?>
<svg width="200px" height="200px" viewBox="0 0 200 200" version="1.1" xmlns="http://www.w3.org/2000/svg" xmlns:xlink="http://www.w3.org/1999/xlink">
    <!-- Generator: Sketch 41.2 (35397) - http://www.bohemiancoding.com/sketch -->
    <title>pricing-page-icons/ic-price-lv-two</title>
    <desc>Created with Sketch.</desc>
    <defs></defs>
    <g stroke="none" stroke-width="1" fill="none" fill-rule="evenodd">
        <g fill="#FF553E">
            <path d="M177.50829,17 C187.365906,17 195.156603,24.9496908 194.997609,34.6483135 C194.997609,42.7569981 189.591819,49.5937321 182.11911,51.6606517 L182.11911,93.3170313 C182.11911,99.6767839 178.78024,105.082574 173.851432,108.26245 L173.851432,194.755085 L26.1461774,194.755085 L26.1461774,108.26245 C21.2173692,105.082574 17.878499,99.6767839 17.878499,93.3170313 L17.878499,51.6606517 C10.5647835,49.5937321 5,42.7569981 5,34.6483135 C5,24.9496908 12.9495318,17 22.6483135,17 L177.50829,17 Z M117.567621,185.215456 L141.734681,185.215456 L141.734681,135.450392 L117.567621,135.450392 L117.567621,185.215456 Z M164.311803,185.215456 L164.311803,110.965345 C159.224001,110.965345 154.772174,108.739431 151.592298,105.400561 C148.412421,108.739431 143.801601,110.965345 138.713799,110.965345 C133.625997,110.965345 129.015176,108.739431 125.8353,105.241567 C122.655423,108.739431 118.044603,110.965345 112.956801,110.965345 C107.868998,110.965345 103.258178,108.898425 100.078301,105.400561 C96.8984252,108.739431 92.2876046,110.965345 87.1998025,110.965345 C82.1120004,110.965345 77.5011797,108.898425 74.3213034,105.400561 C71.1414271,108.739431 66.5306065,110.965345 61.4428044,110.965345 C56.3550023,110.965345 51.7441817,108.898425 48.5643054,105.400561 C45.3844291,108.739431 40.7736084,110.965345 35.8448002,110.965345 L35.8448002,185.215456 L108.027992,185.215456 L108.027992,125.910763 L151.27431,125.910763 L151.27431,185.215456 L164.311803,185.215456 Z M54.4470765,163.27431 L91.8106231,163.27431 L91.8106231,125.910763 L54.4470765,125.910763 L54.4470765,163.27431 Z M63.9867054,153.734681 L82.2709942,153.734681 L82.2709942,135.450392 L63.9867054,135.450392 L63.9867054,153.734681 Z M164.62979,101.425716 C160.177964,101.425716 156.521106,97.7688581 156.521106,93.3170313 L156.521106,52.296627 L172.738475,52.296627 L172.738475,93.3170313 C172.738475,97.7688581 169.081617,101.425716 164.62979,101.425716 Z M130.764108,52.296627 L130.764108,93.3170313 C130.764108,97.7688581 134.420966,101.425716 138.872792,101.425716 C143.324619,101.425716 146.981477,97.7688581 146.981477,93.3170313 L146.981477,52.296627 L130.764108,52.296627 Z M104.848116,52.296627 L104.848116,93.3170313 C104.848116,97.7688581 108.504974,101.425716 112.956801,101.425716 C117.408627,101.425716 121.065485,97.7688581 121.065485,93.3170313 L121.065485,52.296627 L104.848116,52.296627 Z M79.0911179,52.296627 L95.308487,52.296627 L95.308487,93.3170313 C95.308487,97.7688581 91.6516293,101.425716 87.1998025,101.425716 C82.7479756,101.425716 79.0911179,97.7688581 79.0911179,93.3170313 L79.0911179,52.296627 Z M53.3341198,52.296627 L53.3341198,93.3170313 C53.3341198,97.7688581 56.9909776,101.425716 61.4428044,101.425716 C65.8946312,101.425716 69.551489,97.7688581 69.551489,93.3170313 L69.551489,52.296627 L53.3341198,52.296627 Z M35.6858063,101.425716 C31.2339795,101.425716 27.5771218,97.7688581 27.5771218,93.3170313 L27.5771218,52.296627 L43.7944909,52.296627 L43.7944909,93.3170313 C43.7944909,97.7688581 40.1376332,101.425716 35.6858063,101.425716 Z M177.50829,42.7569981 C182.11911,42.7569981 185.616974,39.1001403 185.616974,34.6483135 C185.616974,30.1964867 181.960116,26.5396289 177.50829,26.5396289 L22.6483135,26.5396289 C18.1964867,26.5396289 14.5396289,30.1964867 14.5396289,34.6483135 C14.5396289,39.1001403 18.1964867,42.7569981 22.6483135,42.7569981 L177.50829,42.7569981 Z"></path>
        </g>
    </g>
</svg>