<?xml version="1.0" encoding="UTF-8"?>
<svg width="200px" height="200px" viewBox="0 0 200 200" version="1.1" xmlns="http://www.w3.org/2000/svg" xmlns:xlink="http://www.w3.org/1999/xlink">
    <!-- Generator: Sketch 41.2 (35397) - http://www.bohemiancoding.com/sketch -->
    <title>pricing-page-icons/ic-price-lv-three</title>
    <desc>Created with Sketch.</desc>
    <defs></defs>
    <g stroke="none" stroke-width="1" fill="none" fill-rule="evenodd">
        <g fill="#FF553E">
            <path d="M36.1697147,5 L32,5 L32,195 L168.21068,195 L168.21068,5 L164.040966,5 L36.1697147,5 Z M159.871251,36.9678127 L136.242868,36.9678127 L136.242868,13.3394294 L159.871251,13.3394294 L159.871251,36.9678127 Z M136.93782,142.739576 L136.93782,144.407462 C136.93782,145.241405 136.242868,145.797366 135.547915,145.797366 L64.8017557,145.797366 C63.9678127,145.797366 63.4118508,145.102414 63.4118508,144.407462 L63.4118508,142.739576 C63.4118508,141.905633 64.1068032,141.349671 64.8017557,141.349671 L135.547915,141.349671 C136.242868,141.21068 136.93782,141.905633 136.93782,142.739576 Z M113.865399,153.997805 L113.865399,186.660571 L86.3452816,186.660571 L86.3452816,153.997805 L113.865399,153.997805 Z M127.903438,132.871251 L104.275055,132.871251 L104.275055,109.242868 L127.903438,109.242868 L127.903438,132.871251 Z M72.3072421,109.242868 L95.9356255,109.242868 L95.9356255,132.871251 L72.3072421,132.871251 L72.3072421,109.242868 Z M72.3072421,100.903438 L72.3072421,77.2750549 L95.9356255,77.2750549 L95.9356255,100.903438 L72.3072421,100.903438 Z M104.275055,100.903438 L104.275055,77.2750549 L127.903438,77.2750549 L127.903438,100.903438 L104.275055,100.903438 Z M104.275055,68.9356255 L104.275055,45.3072421 L127.903438,45.3072421 L127.903438,68.9356255 L104.275055,68.9356255 Z M104.275055,36.9678127 L104.275055,13.3394294 L127.903438,13.3394294 L127.903438,36.9678127 L104.275055,36.9678127 Z M95.9356255,36.9678127 L72.3072421,36.9678127 L72.3072421,13.3394294 L95.9356255,13.3394294 L95.9356255,36.9678127 Z M95.9356255,45.3072421 L95.9356255,68.9356255 L72.3072421,68.9356255 L72.3072421,45.3072421 L95.9356255,45.3072421 Z M63.9678127,68.9356255 L40.3394294,68.9356255 L40.3394294,45.3072421 L63.9678127,45.3072421 L63.9678127,68.9356255 Z M63.9678127,77.2750549 L63.9678127,100.903438 L40.3394294,100.903438 L40.3394294,77.2750549 L63.9678127,77.2750549 Z M63.9678127,109.242868 L63.9678127,132.871251 L40.3394294,132.871251 L40.3394294,109.242868 L63.9678127,109.242868 Z M136.242868,132.871251 L136.242868,109.242868 L159.871251,109.242868 L159.871251,132.871251 L136.242868,132.871251 Z M136.242868,100.903438 L136.242868,77.2750549 L159.871251,77.2750549 L159.871251,100.903438 L136.242868,100.903438 Z M136.242868,68.9356255 L136.242868,45.3072421 L159.871251,45.3072421 L159.871251,68.9356255 L136.242868,68.9356255 Z M63.9678127,13.3394294 L63.9678127,36.9678127 L40.3394294,36.9678127 L40.3394294,13.3394294 L63.9678127,13.3394294 Z M40.3394294,141.21068 L55.0724214,141.21068 C55.0724214,141.627652 54.9334309,142.183614 54.9334309,142.600585 L54.9334309,144.268471 C54.9334309,149.6891 59.2421361,153.997805 64.6627652,153.997805 L77.8668617,153.997805 L77.8668617,186.660571 L40.3394294,186.660571 L40.3394294,141.21068 Z M122.204828,186.660571 L122.204828,153.997805 L135.408925,153.997805 C140.829554,153.997805 145.138259,149.6891 145.138259,144.268471 L145.138259,142.600585 C145.138259,142.183614 145.138259,141.627652 144.999268,141.21068 L159.871251,141.21068 L159.871251,186.660571 L122.204828,186.660571 Z"></path>
        </g>
    </g>
</svg>