<?xml version="1.0" encoding="UTF-8"?>
<svg width="200px" height="200px" viewBox="0 0 200 200" version="1.1" xmlns="http://www.w3.org/2000/svg" xmlns:xlink="http://www.w3.org/1999/xlink">
    <!-- Generator: Sketch 41.2 (35397) - http://www.bohemiancoding.com/sketch -->
    <title>pricing-page-icons/ic-price-lv-one</title>
    <desc>Created with Sketch.</desc>
    <defs></defs>
    <g stroke="none" stroke-width="1" fill="none" fill-rule="evenodd">
        <g fill="#FF553E">
            <path d="M31.9638201,31.9543517 L31.9638201,10.062167 C31.9729319,9.88499112 31.9731006,9.70950266 31.9914928,9.53232682 C32.028446,9.18134991 32.1021835,8.83374778 32.2115243,8.49795737 C32.3753668,7.99342806 32.6188526,7.51589698 32.9305077,7.08730018 C33.5555052,6.22673179 34.4503113,5.57708703 35.4615451,5.24804618 C35.7980044,5.1383659 36.1449252,5.06412078 36.4967394,5.02699822 C36.6723934,5.00843694 36.8493973,5.00843694 37.025895,5 L186.357103,5 C186.532588,5.00843694 186.709761,5.01856128 186.886933,5.02699822 C187.060731,5.05568384 187.236217,5.07424512 187.410015,5.11136767 C187.755923,5.1839254 188.093395,5.29360568 188.41568,5.43703375 C189.716633,6.01749556 190.730736,7.14298401 191.171136,8.49795737 C191.280814,8.83374778 191.355058,9.18134991 191.39218,9.53232682 C191.409054,9.70950266 191.409054,9.88499112 191.419178,10.062167 L191.419178,150.790409 L181.295028,150.790409 L181.295028,15.1243339 L42.0879698,15.1243339 L42.0879698,31.9577265 C45.1805601,31.9661634 48.2733191,31.9796625 51.3659093,31.9999112 C51.8614865,32.0083481 52.355545,32.0387211 52.8474099,32.1011545 C53.8088667,32.2243339 54.7563183,32.4538188 55.6668169,32.7862345 C57.3388202,33.3970693 58.8788721,34.3555062 60.1671701,35.5839254 C61.6061493,36.9557726 62.7223368,38.6566607 63.4047045,40.5246004 C63.7374515,41.434103 63.9667635,42.3824156 64.0889283,43.34254 C64.1513605,43.8352575 64.1819017,44.3296625 64.1913509,44.8240675 C64.1970879,45.7234458 64.1970879,46.6211368 64.1913509,47.5205151 C64.1819017,48.0149201 64.1513605,48.509325 64.0889283,49.0020426 C63.9667635,49.962167 63.7374515,50.9104796 63.4047045,51.8199822 C62.7223368,53.6879218 61.6061493,55.3888099 60.1671701,56.7606572 C58.8788721,57.9890764 57.3388202,58.9475133 55.6668169,59.5583481 C54.7564871,59.8907638 53.8090354,60.1202487 52.8475787,60.2434281 C52.3557137,60.3058615 51.8618239,60.3362345 51.3662468,60.3446714 C47.9923739,60.3666075 44.6183323,60.3801066 41.2442907,60.3885435 L41.2442907,86.4587034 C44.6183323,86.4671403 47.9923739,86.4806394 51.3662468,86.5025755 C51.8616552,86.5110124 52.3553762,86.5413854 52.8470724,86.6038188 C53.8086979,86.7269982 54.7561496,86.9564831 55.6666481,87.2888988 C57.4365182,87.9351687 59.0575633,88.9712256 60.3897327,90.3042629 C61.7219021,91.6356128 62.7581088,93.2571936 63.4047045,95.0272647 C63.7374515,95.9367673 63.9667635,96.8833925 64.0889283,97.8452043 C64.1513605,98.3379218 64.1819017,98.8323268 64.1913509,99.3267318 C64.1970879,100.22611 64.1970879,101.123801 64.1913509,102.023179 C64.1819017,102.517584 64.1513605,103.011989 64.0889283,103.504707 C63.9667635,104.466519 63.7374515,105.413144 63.4047045,106.322647 C62.7581088,108.092718 61.7219021,109.714298 60.3897327,111.045648 C59.0575633,112.378686 57.4365182,113.414742 55.6666481,114.061012 C54.7563183,114.393428 53.8090354,114.622913 52.8475787,114.746092 C52.3557137,114.808526 51.8618239,114.838899 51.3662468,114.847336 C47.9923739,114.869272 44.6183323,114.882771 41.2442907,114.891208 L41.2442907,140.961368 C44.6183323,140.969805 47.9923739,140.983304 51.3662468,141.00524 C51.8618239,141.013677 52.3557137,141.04405 52.8475787,141.106483 C53.8092041,141.229663 54.7566558,141.459147 55.6669856,141.791563 C57.436687,142.437833 59.0575633,143.47389 60.3897327,144.806927 C61.7219021,146.138277 62.7579401,147.759858 63.4047045,149.528242 C63.7374515,150.439432 63.9667635,151.386057 64.0889283,152.347869 C64.1513605,152.840586 64.1819017,153.334991 64.1913509,153.829396 C64.1970879,154.728774 64.1970879,155.626465 64.1913509,156.525844 C64.1819017,157.020249 64.1513605,157.514654 64.0889283,158.007371 C63.9667635,158.967496 63.7374515,159.915808 63.4047045,160.825311 C62.7938808,162.497513 61.8352925,164.038099 60.6072332,165.325577 C59.2354109,166.76492 57.5342163,167.881972 55.6666481,168.563677 C54.7561496,168.896092 53.8086979,169.125577 52.8470724,169.248757 C52.3553762,169.31119 51.8616552,169.341563 51.3662468,169.35 C48.2734878,169.370249 45.1807288,169.383748 42.0879698,169.392185 L42.0879698,184.875666 L181.295028,184.875666 L181.295028,175.426288 L170.981726,175.426288 C170.192548,175.419538 169.405733,175.382416 168.621618,175.289609 C167.053218,175.102309 165.50726,174.71421 164.052251,174.096625 C162.901135,173.607282 161.811439,172.976199 160.818767,172.215187 C160.251645,171.781528 159.716584,171.305684 159.21797,170.794405 C156.98627,168.502931 155.548978,165.544938 154.820883,162.450266 C154.535044,161.237034 154.349097,159.993428 154.300502,158.746448 L154.297296,158.613144 L154.297296,28.285968 L164.421445,28.285968 L164.421445,158.459591 C164.429713,158.606394 164.443718,158.753197 164.459748,158.9 C164.503113,159.259414 164.562002,159.61714 164.639789,159.971492 C164.701715,160.253286 164.774103,160.533393 164.85864,160.808437 C165.283179,162.195471 166.01718,163.569005 167.260932,164.380639 C167.617977,164.613499 168.006744,164.79405 168.410529,164.929041 C169.252183,165.210835 170.139396,165.295204 171.022391,165.301954 L186.357103,165.301954 C186.546087,165.312078 186.735071,165.312078 186.924055,165.334014 C187.300336,165.376199 187.671555,165.460568 188.029275,165.585435 C189.471966,166.089964 190.629494,167.249201 191.135702,168.691918 C191.260566,169.049645 191.344934,169.42087 191.387118,169.797158 C191.409054,169.986146 191.409054,170.175133 191.419178,170.364121 L191.419178,189.937833 C191.409054,190.126821 191.409054,190.315808 191.387118,190.504796 C191.344934,190.881083 191.260566,191.252309 191.135702,191.610036 C190.629494,193.052753 189.471966,194.211989 188.029275,194.716519 C187.671555,194.841385 187.300336,194.925755 186.924055,194.96794 C186.735071,194.989876 186.546087,194.989876 186.357103,195 L37.025895,195 C36.8369109,194.989876 36.6470831,194.989876 36.4591113,194.96794 C36.0823242,194.925755 35.7117804,194.841385 35.3538917,194.716519 C33.9115378,194.211989 32.7524914,193.052753 32.2478025,191.610036 C32.1226006,191.252309 32.0380639,190.881083 31.9955425,190.504796 C31.9744505,190.315808 31.9742818,190.126821 31.9638201,189.937833 L31.9638201,169.39556 C28.2521381,169.38881 24.5406248,169.373623 20.8292803,169.35 C20.3338719,169.341563 19.8401509,169.31119 19.3482859,169.248757 C18.3868292,169.125577 17.4393775,168.896092 16.528879,168.563677 C14.6613108,167.881972 12.9601162,166.76492 11.5882939,165.325577 C10.3602346,164.038099 9.40164634,162.497513 8.79082264,160.825311 C8.45807559,159.915808 8.2287636,158.967496 8.10659886,158.007371 C8.0441666,157.514654 8.01345668,157.020249 8.00417621,156.525844 C7.99860793,155.626465 7.99860793,154.728774 8.00417621,153.829396 C8.01345668,153.334991 8.0441666,152.840586 8.10659886,152.347869 C8.2287636,151.387744 8.45807559,150.439432 8.79082264,149.528242 C9.43758707,147.759858 10.4736251,146.138277 11.8057944,144.806927 C13.1379638,143.47389 14.7588402,142.437833 16.5285415,141.791563 C17.4388713,141.459147 18.386323,141.229663 19.3479485,141.106483 C19.8398134,141.04405 20.3337032,141.013677 20.8292803,141.00524 C24.259511,140.983304 27.6897416,140.968117 31.120141,140.961368 L31.120141,114.891208 C27.6897416,114.884458 24.259511,114.869272 20.8292803,114.847336 C20.3337032,114.838899 19.8398134,114.808526 19.3479485,114.746092 C18.3864917,114.622913 17.4392088,114.393428 16.528879,114.061012 C14.7591776,113.414742 13.1379638,112.378686 11.8057944,111.045648 C10.4736251,109.714298 9.43741834,108.092718 8.79082264,106.322647 C8.45807559,105.413144 8.2287636,104.464831 8.10659886,103.504707 C8.0441666,103.011989 8.01345668,102.517584 8.00417621,102.023179 C7.99860793,101.123801 7.99860793,100.22611 8.00417621,99.3267318 C8.01345668,98.8323268 8.0441666,98.3379218 8.10659886,97.8452043 C8.2287636,96.8850799 8.45807559,95.9367673 8.79082264,95.0272647 C9.43741834,93.2571936 10.4736251,91.6356128 11.8057944,90.3042629 C13.1379638,88.9712256 14.7591776,87.9351687 16.528879,87.2888988 C17.4393775,86.9564831 18.3868292,86.7269982 19.3482859,86.6038188 C19.8401509,86.5413854 20.3338719,86.5110124 20.8292803,86.5025755 C24.259511,86.4806394 27.6897416,86.4654529 31.120141,86.4587034 L31.120141,60.3885435 C27.6897416,60.381794 24.259511,60.3666075 20.8292803,60.3446714 C20.3337032,60.3362345 19.8398134,60.3058615 19.3479485,60.2434281 C18.3864917,60.1202487 17.43904,59.8907638 16.5287103,59.5583481 C14.7590089,58.9120782 13.1379638,57.8760213 11.8057944,56.542984 C10.4736251,55.2116341 9.43741834,53.5900533 8.79082264,51.8199822 C8.45807559,50.9104796 8.2287636,49.962167 8.10659886,49.0020426 C8.0441666,48.509325 8.01345668,48.0149201 8.00417621,47.5205151 C7.99860793,46.6211368 7.99860793,45.7234458 8.00417621,44.8240675 C8.01345668,44.3296625 8.0441666,43.8352575 8.10659886,43.34254 C8.2287636,42.3824156 8.45807559,41.434103 8.79082264,40.5246004 C9.43741834,38.7545293 10.4736251,37.1329485 11.8057944,35.8015986 C13.1379638,34.4685613 14.7590089,33.4325044 16.5287103,32.7862345 C17.4392088,32.4538188 18.3864917,32.2243339 19.3481172,32.1011545 C19.8399821,32.0387211 20.3340407,32.0083481 20.8296178,31.9999112 C24.5409623,31.9762877 28.2523069,31.9611012 31.9638201,31.9543517 Z M21.0118525,151.127886 C20.6446833,151.129574 20.2817325,151.19032 19.9390301,151.325311 C19.1857933,151.622291 18.5785131,152.244938 18.3006052,153.004263 C18.1932892,153.297869 18.1382813,153.606661 18.1284946,153.918828 C18.1133084,154.727087 18.1273135,155.535346 18.1274822,156.343606 C18.1274822,156.412789 18.1295071,156.480284 18.1335567,156.549467 C18.1556611,156.870071 18.2265302,157.183925 18.3513947,157.479218 C18.6478635,158.181172 19.2296647,158.749822 19.9390301,159.029929 C20.2395486,159.148046 20.5579531,159.21048 20.8800698,159.225666 C31.0327358,159.544583 41.2053127,159.672824 51.3529167,159.223979 C51.6623782,159.205417 51.96779,159.142984 52.256497,159.029929 C52.9876294,158.741385 53.5825919,158.147425 53.8702865,157.415098 C53.9885703,157.114742 54.0515088,156.795826 54.0658513,156.473535 C54.093524,155.59778 54.1029732,154.71865 54.064164,153.842895 C54.0466154,153.534103 53.9840145,153.228686 53.8702865,152.940142 C53.5824232,152.207815 52.9877981,151.613854 52.256497,151.325311 C51.9556411,151.207194 51.6370678,151.14476 51.3144449,151.129574 C41.2186428,150.80897 31.1127166,151.127886 21.0118525,151.127886 Z M21.0118525,96.625222 C20.6446833,96.6269094 20.2817325,96.6876554 19.9390301,96.8226465 C19.1857933,97.119627 18.5785131,97.7405861 18.3006052,98.5015986 C18.1934579,98.7952043 18.1382813,99.1039964 18.1284946,99.4161634 C18.1133084,100.224423 18.1273135,101.032682 18.1274822,101.840941 C18.1274822,101.908437 18.1295071,101.97762 18.1335567,102.046803 C18.1541425,102.343783 18.2162373,102.635702 18.3252406,102.912433 C18.6129352,103.64476 19.207729,104.238721 19.9390301,104.527265 C20.2395486,104.645382 20.5579531,104.707815 20.8800698,104.723002 C31.0329046,105.045293 41.2056502,105.166785 51.3537604,104.721314 C51.6630531,104.702753 51.9681275,104.64032 52.256497,104.527265 C52.9877981,104.238721 53.5825919,103.64476 53.8702865,102.912433 C53.9885703,102.612078 54.0516775,102.293162 54.0658513,101.97087 C54.093524,101.095115 54.1029732,100.215986 54.064164,99.3402309 C54.0466154,99.0314387 53.9840145,98.7260213 53.8702865,98.4374778 C53.5825919,97.705151 52.9877981,97.1111901 52.256497,96.8226465 C51.9559785,96.7045293 51.637574,96.6420959 51.3154573,96.6269094 C41.2191491,96.3113677 31.1130541,96.625222 21.0118525,96.625222 Z M21.0118525,42.1225577 C20.6446833,42.1242451 20.2817325,42.1849911 19.9390301,42.3199822 C19.1857933,42.6169627 18.5785131,43.2379218 18.3006052,43.9989343 C18.1934579,44.29254 18.1382813,44.6013321 18.1284946,44.9134991 C18.1133084,45.7217584 18.1273135,46.5300178 18.1274822,47.3382771 C18.1274822,47.4057726 18.1295071,47.4749556 18.1335567,47.5441385 C18.1556611,47.8647425 18.2265302,48.1785968 18.3513947,48.4738899 C18.6478635,49.1758437 19.2296647,49.7444938 19.9390301,50.0246004 C20.2395486,50.1427176 20.5579531,50.205151 20.8800698,50.2203375 C31.0329046,50.5409414 41.2054814,50.6658082 51.3534229,50.2186501 C51.6627157,50.2000888 51.9679588,50.1376554 52.256497,50.0246004 C52.9877981,49.7360568 53.5825919,49.1420959 53.8702865,48.4097691 C53.9885703,48.1094139 54.0516775,47.7904973 54.0658513,47.468206 C54.093524,46.5924512 54.1029732,45.7133215 54.064164,44.8375666 C54.0466154,44.5287744 53.9840145,44.223357 53.8702865,43.9348135 C53.5825919,43.2024867 52.9877981,42.6085258 52.256497,42.3199822 C51.9558098,42.201865 51.6374053,42.1394316 51.3149511,42.1242451 C41.2189803,41.8053286 31.1128854,42.1225577 21.0118525,42.1225577 Z"></path>
        </g>
    </g>
</svg>