<?xml version="1.0" encoding="UTF-8"?>
<svg width="22px" height="22px" viewBox="0 0 22 22" version="1.1" xmlns="http://www.w3.org/2000/svg" xmlns:xlink="http://www.w3.org/1999/xlink">
    <!-- Generator: Sketch 41.2 (35397) - http://www.bohemiancoding.com/sketch -->
    <title>pricing-page-icons/ic-question-mark</title>
    <desc>Created with Sketch.</desc>
    <defs></defs>
    <g stroke="none" stroke-width="1" fill="none" fill-rule="evenodd">
        <g fill="#FF553E">
            <path d="M11,21 C16.5228169,21 21,16.5228169 21,11 C21,5.4771831 16.5228169,1 11,1 C5.4771831,1 1,5.4771831 1,11 C1,16.5228169 5.4771831,21 11,21 Z M11,19.7793427 C6.15126761,19.7793427 2.22065728,15.8487324 2.22065728,11 C2.22065728,6.15126761 6.15126761,2.22065728 11,2.22065728 C15.8487324,2.22065728 19.7793427,6.15126761 19.7793427,11 C19.7793427,15.8487324 15.8487324,19.7793427 11,19.7793427 Z M11.9339906,14.1776526 C12.1933333,14.1776526 12.4034742,14.3878873 12.4034742,14.6471362 L12.4034742,16.6338028 C12.4034742,16.8930516 12.1933333,17.1032864 11.9339906,17.1032864 L9.94732394,17.1032864 C9.68807512,17.1032864 9.47784038,16.8930516 9.47784038,16.6338028 L9.47784038,14.6471362 C9.47784038,14.3878873 9.68807512,14.1776526 9.94732394,14.1776526 L11.9339906,14.1776526 Z M9.83859155,8.47962441 C9.85962441,7.70478873 10.2625352,7.33305164 11,7.33305164 C11.7602817,7.33305164 12.1613146,7.72638498 12.1613146,8.5685446 C12.1613146,8.957277 11.9343662,9.33098592 11.511831,9.72103286 L10.7408451,10.4326761 C9.93239437,11.1584977 9.68544601,11.6185915 9.68544601,12.4529577 L9.68544601,12.779061 C9.68544601,13.0384038 9.89558685,13.2485446 10.1549296,13.2485446 L11.7116432,13.2485446 C11.970892,13.2485446 12.1811268,13.0384038 12.1811268,12.779061 L12.1811268,12.6012207 C12.1811268,12.4301408 12.2018779,12.394554 12.4884507,12.131831 L13.2605634,11.419061 C14.1311737,10.6226291 14.6569953,9.62309859 14.6569953,8.53887324 C14.6569953,6.10356808 13.0665728,4.89671362 11,4.89671362 C8.96516432,4.89671362 7.37173709,6.08591549 7.34300469,8.45906103 C7.3429108,8.73887324 7.55314554,8.94910798 7.81239437,8.94910798 L9.36910798,8.94910798 C9.6284507,8.94910798 9.83859155,8.73887324 9.83859155,8.47962441 Z"></path>
        </g>
    </g>
</svg>